<svg xmlns="http://www.w3.org/2000/svg" xmlns:xlink="http://www.w3.org/1999/xlink" version="1.1" id="Layer_1" x="0px" y="0px" width="100px" height="100px" viewBox="0 0 100 100" enable-background="new 0 0 100 100" xml:space="preserve">
<path fill="#000000" d="M50,69.128"/>
<g>
	<path fill="#000000" d="M21.816,48.037h-6.889c-0.931,0-1.687-0.755-1.687-1.687s0.756-1.687,1.687-1.687h6.889   c0.931,0,1.687,0.755,1.687,1.687S22.747,48.037,21.816,48.037z"/>
	<path fill="#000000" d="M78.184,45.912h6.889c0.931,0,1.687-0.755,1.687-1.687s-0.756-1.687-1.687-1.687h-6.889   c-0.931,0-1.687,0.755-1.687,1.687S77.253,45.912,78.184,45.912z"/>
	<path fill="#000000" d="M25.667,31.535c-0.287,0-0.577-0.073-0.842-0.227l-5.965-3.444c-0.806-0.465-1.083-1.497-0.617-2.304   c0.467-0.808,1.499-1.081,2.304-0.617l5.964,3.444c0.806,0.465,1.083,1.497,0.617,2.304C26.815,31.232,26.249,31.535,25.667,31.535   z"/>
	<path fill="#000000" d="M36.194,21.01c-0.582,0-1.149-0.303-1.461-0.843l-3.444-5.965c-0.466-0.807-0.189-1.839,0.617-2.304   c0.805-0.465,1.837-0.19,2.304,0.617l3.444,5.964c0.465,0.807,0.189,1.839-0.617,2.304C36.771,20.937,36.481,21.01,36.194,21.01z"/>
	<path fill="#000000" d="M50.571,17.157c-0.931,0-1.687-0.755-1.687-1.687V8.583c0-0.931,0.756-1.687,1.687-1.687   s1.687,0.755,1.687,1.687v6.887C52.258,16.402,51.502,17.157,50.571,17.157z"/>
	<path fill="#000000" d="M64.947,21.011c-0.287,0-0.577-0.073-0.842-0.227c-0.806-0.466-1.083-1.498-0.617-2.304l3.444-5.965   c0.467-0.807,1.499-1.081,2.304-0.617c0.806,0.465,1.083,1.497,0.617,2.304l-3.444,5.965   C66.096,20.708,65.529,21.011,64.947,21.011z"/>
	<path fill="#000000" d="M75.475,31.537c-0.582,0-1.149-0.303-1.462-0.844c-0.466-0.807-0.189-1.838,0.617-2.304l5.965-3.444   c0.804-0.465,1.837-0.19,2.304,0.617c0.465,0.807,0.189,1.838-0.617,2.304l-5.964,3.444C76.052,31.463,75.762,31.537,75.475,31.537   z"/>
	<path fill="#000000" d="M81.437,63.736c-0.287,0-0.577-0.073-0.842-0.227l-5.965-3.444c-0.806-0.465-1.083-1.497-0.617-2.304   c0.467-0.806,1.499-1.083,2.304-0.617l5.964,3.444c0.806,0.466,1.083,1.497,0.617,2.304C82.586,63.433,82.019,63.736,81.437,63.736   z"/>
	<path fill="#000000" d="M19.705,63.733c-0.582,0-1.149-0.303-1.462-0.844c-0.466-0.807-0.189-1.838,0.617-2.304l5.965-3.444   c0.805-0.467,1.837-0.19,2.304,0.617c0.465,0.807,0.189,1.838-0.617,2.304l-5.964,3.444C20.281,63.661,19.991,63.733,19.705,63.733   z"/>
</g>
<g>
	<path fill="#000000" d="M35.424,72.1"/>
	<path fill="#000000" d="M56.013,72.977l-12.078-0.002c-3.242-0.137-4.055-3.168-4.445-4.625c-0.535-1.936-1.331-4.813-4.109-7.933   c-6.157-6.928-7.944-16.812-4.449-24.6C34.126,28.7,41.077,24.618,50,24.618S65.874,28.7,69.069,35.816   c3.495,7.787,1.708,17.672-4.448,24.598c-2.778,3.12-3.574,5.996-4.101,7.9c-0.4,1.491-1.212,4.523-4.455,4.66L56.013,72.977z    M44.587,67.977h10.826c0.096-0.279,0.198-0.66,0.268-0.922c0.591-2.137,1.654-5.976,5.205-9.963   c4.868-5.478,6.325-13.205,3.622-19.227c-2.353-5.24-7.641-8.246-14.508-8.246s-12.155,3.005-14.507,8.246   c-2.703,6.021-1.247,13.749,3.623,19.229c3.551,3.987,4.613,7.828,5.184,9.892C44.387,67.309,44.491,67.698,44.587,67.977z"/>
	<path fill="#000000" d="M56.87,79.91H43.914c-1.381,0-2.5-1.119-2.5-2.5s1.119-2.5,2.5-2.5H56.87c1.381,0,2.5,1.119,2.5,2.5   S58.25,79.91,56.87,79.91z"/>
	<path fill="#000000" d="M56.333,86.416H44.45c-1.381,0-2.5-1.119-2.5-2.5s1.119-2.5,2.5-2.5h11.882c1.381,0,2.5,1.119,2.5,2.5   S57.713,86.416,56.333,86.416z"/>
	<path fill="#000000" d="M57.35,89.591c0,1.685-2.78,3.809-6.7,3.929c-0.09,0.01-0.17,0.01-0.26,0.01s-0.18,0-0.26-0.01   c-3.91-0.12-6.69-2.735-6.69-3.929c0-1.38,1.11-1.544,2.5-1.544h8.91C56.23,88.047,57.35,88.211,57.35,89.591z"/>
</g>
</svg>